<svg class="svg-icon" style="width: 1em;height: 1em;vertical-align: middle;fill: currentColor;overflow: hidden;" viewBox="0 0 1024 1024" version="1.1" xmlns="http://www.w3.org/2000/svg"><path d="M511.999699 325.818658a46.545423 46.545423 0 1 0 46.545422 46.545423 46.545423 46.545423 0 0 0-46.545422-46.545423z m0 83.781761a37.236338 37.236338 0 1 1 37.236338-37.236338 37.236338 37.236338 0 0 1-37.236338 37.236338z"  /><path d="M511.999699 256.000524a116.363557 116.363557 0 1 0 116.363557 116.363557 116.363557 116.363557 0 0 0-116.363557-116.363557z m0 209.454402a93.090846 93.090846 0 1 1 93.090845-93.090845 93.090846 93.090846 0 0 1-93.090845 93.090845z"  /><path d="M511.999699 0.000698a442.181517 442.181517 0 0 0-116.363558 869.003044A289.745257 289.745257 0 0 1 511.999699 1024a289.745257 289.745257 0 0 1 116.363557-154.996258A442.181517 442.181517 0 0 0 511.999699 0.000698z m209.454402 791.272188a23.272711 23.272711 0 0 1-23.272711 23.272711H325.818007a23.272711 23.272711 0 0 1-23.272711-23.272711v-23.272711a23.272711 23.272711 0 0 1 23.272711-23.272712h372.363383a23.272711 23.272711 0 0 1 23.272711 23.272712z m93.090846-383.999738a23.272711 23.272711 0 0 1-23.272712-23.272712V442.182215a23.272711 23.272711 0 0 1-46.545422 0h-69.818135v232.727114a46.545423 46.545423 0 0 1-46.545422 46.545423H395.636141a46.545423 46.545423 0 0 1-46.545422-46.545423V442.182215H279.272584a23.272711 23.272711 0 0 1-46.545422 0v-58.181779a23.272711 23.272711 0 0 1-46.545423 0v-23.272711a23.272711 23.272711 0 0 1 46.545423 0V302.545946a23.272711 23.272711 0 0 1 46.545422 0h69.818135v-69.818134h-23.272712a23.272711 23.272711 0 0 1 0-46.545423h23.272712a132.421728 132.421728 0 0 1 98.676296-84.945396 46.545423 46.545423 0 0 1 0-8.145449 46.545423 46.545423 0 0 1 46.545423-46.545423h37.236338a46.545423 46.545423 0 0 1 46.545423 46.545423v7.447267C661.410506 122.41516 674.908678 186.182389 674.908678 186.182389h23.272712a23.272711 23.272711 0 0 1 0 46.545423h-23.272712v69.818134h69.818135a23.272711 23.272711 0 0 1 46.545422 0v58.181779a23.272711 23.272711 0 0 1 46.545423 0v23.272711a23.272711 23.272711 0 0 1-23.272711 23.272712z"  /></svg>